<svg xmlns="http://www.w3.org/2000/svg" viewBox="0 0 128 128" role="img" aria-label="Gecko">
  <rect width="128" height="128" rx="24" fill="#0f172a"/>
  <path
    d="M36 78c8-18 22-28 40-28 6 0 12 1 17 4-4 14-14 24-28 30-8 3-18 4-29-6z"
    fill="#34d399"/>
  <circle cx="82" cy="46" r="5" fill="#ecfdf5"/>
  <path
    d="M34 82c-6 8-8 16-6 24 2 8 8 14 16 16-2-10 0-20 6-28-4-2-10-4-16-12z"
    fill="#10b981"/>
  <path
    d="M92 78c6 6 10 14 10 22 0 4-1 8-3 11-8-6-12-14-12-22 0-4 1-7 5-11z"
    fill="#059669"/>
</svg>
